<?xml version="1.0" encoding="UTF-8" standalone="no"?>
<!-- Created with Inkscape (http://www.inkscape.org/) -->

<svg
   width="435.43817"
   height="186.96808"
   viewBox="0 0 115.20968 49.468637"
   version="1.1"
   id="svg1"
   xml:space="preserve"
   xmlns:inkscape="http://www.inkscape.org/namespaces/inkscape"
   xmlns:sodipodi="http://sodipodi.sourceforge.net/DTD/sodipodi-0.dtd"
   xmlns="http://www.w3.org/2000/svg"
   xmlns:svg="http://www.w3.org/2000/svg"><sodipodi:namedview
     id="namedview1"
     pagecolor="#ffffff"
     bordercolor="#000000"
     borderopacity="0.25"
     inkscape:showpageshadow="2"
     inkscape:pageopacity="0.0"
     inkscape:pagecheckerboard="0"
     inkscape:deskcolor="#d1d1d1"
     inkscape:document-units="mm"><inkscape:page
       x="0"
       y="0"
       width="115.20968"
       height="49.468636"
       id="page2"
       margin="0"
       bleed="0" /></sodipodi:namedview><defs
     id="defs1" /><g
     inkscape:label="Layer 1"
     inkscape:groupmode="layer"
     id="layer1"
     transform="translate(-8.0005867,-1.9281062)"><path
       style="fill:none;stroke:#c29f67;stroke-width:1.11244;stroke-linecap:round;stroke-linejoin:round"
       d="m 113.2885,19.661516 c 5.04021,-0.03158 5.0738,-0.04787 9.36556,0.149065"
       id="path8" /><path
       style="fill:none;stroke:#c29f67;stroke-width:1.11244;stroke-linecap:round;stroke-linejoin:round"
       d="m 84.584045,21.487756 c -2.83331,9.070011 -4.585078,13.844389 -1.735569,16.012335 3.067203,2.333567 9.281134,-1.831797 10.493953,-4.355257"
       id="path7" /><path
       style="fill:none;stroke:#c29f67;stroke-width:1.11244;stroke-linecap:round;stroke-linejoin:round"
       d="m 39.142491,27.526906 c 10.325235,0.513812 7.840972,0.252634 18.372671,1.550499"
       id="path6" /><path
       style="fill:none;stroke:#c29f67;stroke-width:1.11244;stroke-linecap:round;stroke-linejoin:round"
       d="m 53.143451,29.708822 c -0.707787,3.377232 -1.063455,9.391526 1.327979,12.404738 5.456848,6.875644 5.685603,-18.122967 11.0384,-30.235644 C 69.419971,3.0297772 73.473409,1.0935129 70.198382,4.8160639 63.755676,12.13915 60.340613,34.649839 60.340613,34.649839 59.476792,33.427963 77.708427,7.6983092 76.556779,24.948773 c -1.761586,26.3867 -44.496582,11.11148 6.096712,1.287222"
       id="path5" /><path
       style="fill:none;stroke:#c29f67;stroke-width:1.11244;stroke-linecap:round;stroke-linejoin:round"
       d="M 98.31388,26.717958 C 93.157252,40.212265 81.028599,30.044676 83.898347,23.416982 85.014888,20.838329 86.001536,18.682771 89.126435,17.717515 96.52891,15.430953 96.262,24.463848 94.59935,28.925602 94.14365,30.14847 93.432171,33.1357 93.432171,33.1357"
       id="path4" /><path
       style="fill:none;stroke:#c29f67;stroke-width:1.11244;stroke-linecap:round;stroke-linejoin:round"
       d="M 41.360687,29.638042 C 36.266018,37.106178 30.340172,46.941344 20.819536,50.079387 5.5662484,55.106926 6.9984374,34.056783 12.055475,26.171292 c 3.310539,-5.162157 7.982385,-9.232786 14.272683,-9.356152 5.815761,-0.114059 7.528417,3.239184 6.059482,8.80529"
       id="path3" /><path
       style="fill:none;stroke:#c29f67;stroke-width:1.11244;stroke-linecap:round;stroke-linejoin:round"
       d="m 100.80667,21.094847 c -7.03831,12.27526 -5.55822,32.467866 10.80995,-2.222281 0.64416,-1.365224 -7.71592,17.479309 -1.69987,19.966075 4.1615,1.720171 6.47425,-18.854837 8.81413,-25.024379 0.70298,-1.853531 -9.94783,37.253193 1.44459,21.334893"
       id="path2" /><path
       style="fill:none;stroke:#c29f67;stroke-width:1.11244;stroke-linecap:round;stroke-linejoin:round"
       d="M 40.837283,30.322973 C 45.013314,24.417764 55.82241,5.4295785 62.134192,2.4842238 54.338416,11.651976 54.316241,25.233136 53.072481,30.12676"
       id="path1" /></g></svg>
