<?xml version="1.0" encoding="UTF-8" standalone="no"?>
<!-- Created with Inkscape (http://www.inkscape.org/) -->

<svg
   width="434.29816mm"
   height="129.05151mm"
   viewBox="0 0 434.29816 129.05151"
   version="1.1"
   id="svg1"
   xml:space="preserve"
   sodipodi:docname="Connect.svg"
   xmlns:inkscape="http://www.inkscape.org/namespaces/inkscape"
   xmlns:sodipodi="http://sodipodi.sourceforge.net/DTD/sodipodi-0.dtd"
   xmlns="http://www.w3.org/2000/svg"
   xmlns:svg="http://www.w3.org/2000/svg"><sodipodi:namedview
     id="namedview1"
     pagecolor="#ffffff"
     bordercolor="#000000"
     borderopacity="0.25"
     inkscape:showpageshadow="2"
     inkscape:pageopacity="0.0"
     inkscape:pagecheckerboard="0"
     inkscape:deskcolor="#d1d1d1"
     inkscape:document-units="mm"><inkscape:page
       x="0"
       y="0"
       width="434.29816"
       height="129.05151"
       id="page2"
       margin="0"
       bleed="0" /></sodipodi:namedview><defs
     id="defs1" /><g
     id="layer1"
     transform="translate(-42.067635,-28.100555)"><path
       style="fill:none;stroke:#c29d62;stroke-width:5.292;stroke-linecap:round;stroke-linejoin:round;stroke-dasharray:none"
       d="m 151.99859,120.47077 c 0.0423,5.03835 -3.76278,18.71332 1.6107,21.71941 7.48693,4.18844 23.00344,-3.37617 26.03172,-9.73159"
       id="path9" /><path
       style="fill:none;stroke:#c29d62;stroke-width:5.292;stroke-linecap:round;stroke-linejoin:round;stroke-dasharray:none"
       d="m 443.08228,119.85229 c -0.12376,5.99459 -4.46488,30.90195 11.14957,22.36741"
       id="path8" /><path
       style="fill:none;stroke:#c29d62;stroke-width:5.292;stroke-linecap:round;stroke-linejoin:round;stroke-dasharray:none"
       d="m 432.90255,84.587486 c 12.45224,0.614228 8.07441,9.478965 3.72133,14.794897"
       id="path7" /><path
       style="fill:none;stroke:#c29d62;stroke-width:5.292;stroke-linecap:round;stroke-linejoin:round;stroke-dasharray:none"
       d="m 304.93438,113.70741 c 4.11459,-2.37112 10.1691,-8.19318 16.79639,-13.54049 8.60169,-6.940362 17.62841,-13.260911 25.17078,-10.018349 7.90885,1.295922 -27.70952,30.715819 -22.73357,43.507409 1.60092,4.1155 11.65224,-0.76292 15.02028,-2.85915 6.09603,-3.7941 10.49351,-4.6106 15.56315,-8.45926"
       id="path6" /><path
       style="fill:none;stroke:#c29d62;stroke-width:5.292;stroke-linecap:round;stroke-linejoin:round;stroke-dasharray:none"
       d="m 181.12407,133.71829 c 10.39378,-3.10781 14.34298,-5.24689 20.88782,-14.87746 4.68346,-6.8916 7.83625,-14.69608 13.21868,-21.249422 2.8508,-3.47098 9.06183,-10.328217 14.13539,-6.349822 5.08995,3.991242 4.6394,17.884964 -14.67339,46.717744 -12.0077,7.91181 29.97736,-37.976562 42.94418,-45.642762 3.10358,-1.834888 10.52448,-5.580824 12.37249,-1.664532 1.38325,2.931412 -1.75467,6.636702 -3.49307,9.060622 -5.22767,7.289102 -11.36213,14.178432 -15.3096,22.316202 -2.2955,4.73221 -5.30062,12.53197 1.17912,15.14723 9.84978,3.97544 18.48551,-8.50186 22.89182,-15.14723 5.85539,-8.83077 11.57645,-25.507802 21.69383,-30.626566 4.11826,-2.083582 8.87465,-0.834764 9.29514,4.080154 0.69281,8.098172 5.70337,11.448492 -17.35865,44.919172"
       id="path5" /><path
       style="fill:none;stroke:#c29d62;stroke-width:5.292;stroke-linecap:round;stroke-linejoin:round;stroke-dasharray:none"
       d="m 353.2264,122.81697 c 1.64073,-10.97382 7.23192,-20.84868 15.94014,-26.939992 4.68145,-3.274622 17.88207,-11.493152 19.90015,-3.55631 2.82503,11.110432 -10.24799,18.633282 -18.3922,24.338042 -5.27901,3.69778 -10.25005,3.40375 -14.75693,4.8378 -10.72065,3.41121 4.43307,21.63056 15.42555,19.09802 9.37203,-2.15922 17.05732,-8.90279 27.80491,-29.32437"
       id="path4" /><path
       style="fill:none;stroke:#c29d62;stroke-width:5.292;stroke-linecap:round;stroke-linejoin:round;stroke-dasharray:none"
       d="m 60.711388,50.977187 c -0.830247,6.330439 1.329421,11.060507 5.643653,16.212144"
       id="path3" /><path
       style="fill:none;stroke:#c29d62;stroke-width:5.292;stroke-linecap:round;stroke-linejoin:round;stroke-dasharray:none"
       d="m 473.71994,86.015924 c -16.20937,0.981302 -28.63575,-1.813406 -44.99232,-1.331607 -15.73468,1.111514 -32.69867,24.587763 -33.00199,39.469893 -0.35605,17.4697 17.94382,19.97414 29.81396,11.6427 3.70344,-2.59939 7.12763,-6.22238 10.17579,-9.40665 2.35868,-2.46404 4.83399,-3.79672 7.02466,-6.70897 7.2053,-9.57866 22.97982,-50.188429 27.65387,-61.856835"
       id="path2" /><path
       style="fill:none;stroke:#c29d62;stroke-width:5.292;stroke-linecap:round;stroke-linejoin:round;stroke-dasharray:none"
       d="M 66.355041,65.70702 C 75.393164,58.371781 85.154263,50.38003 96.109974,44.728182 110.8142,37.142548 127.49589,31.997092 143.9304,30.834676 c 11.37046,-0.804231 30.65864,4.072906 28.84232,18.932202 -1.17257,9.592762 -10.13243,17.245308 -18.21555,21.482294 -18.03681,9.454479 -41.89582,11.655929 -61.635225,8.18326 C 82.27386,77.559161 73.628574,73.404198 66.355041,66.769696 52.009541,81.769133 37.3728,109.89466 48.813502,131.59294 c 18.511635,35.10892 64.010658,25.0293 87.678168,2.1106 5.30769,-5.13977 9.76822,-8.16611 14.87747,-13.80004 6.66177,5.88902 14.00277,16.35793 25.3509,13.16456 3.97498,-1.11856 5.28853,-6.70463 7.14517,-9.97653 5.0752,-8.94388 11.25987,-20.14152 7.51992,-30.801202 -3.63149,-10.350596 -19.15736,-8.904837 -26.14299,-4.125251 -4.20508,2.877128 -4.47134,5.797911 -6.98036,10.484901 -4.302,8.036352 -5.32621,12.845982 -6.89264,21.253522"
       id="path1" /></g></svg>
