<?xml version="1.0" encoding="UTF-8" standalone="no"?>
<!-- Created with Inkscape (http://www.inkscape.org/) -->

<svg
   width="473.26477"
   height="169.44589"
   viewBox="0 0 125.21797 44.832558"
   version="1.1"
   id="svg1"
   xmlns="http://www.w3.org/2000/svg"
   xmlns:svg="http://www.w3.org/2000/svg">
  <defs
     id="defs1" />
  <g
     id="layer1"
     transform="translate(-3.7385049,-3.127117)">
    <path
       style="fill:none;stroke:#c29d63;stroke-width:1.3873;stroke-linecap:round;stroke-linejoin:miter;stroke-miterlimit:1;stroke-dasharray:none;paint-order:markers stroke fill"
       d="m 90.075456,30.06552 c -1.673213,4.993442 -5.240885,11.489741 -11.792099,15.457866 -1.581897,0.958172 -6.048036,3.132686 -7.116371,0.441569 -0.766448,-1.930684 1.31228,-3.873209 2.607616,-4.937464 3.18221,-2.614525 12.294536,-9.38016 16.571832,-11.469793"
       id="path14" />
    <path
       style="fill:none;stroke:#c29d63;stroke-width:1.3873;stroke-linecap:round;stroke-linejoin:miter;stroke-miterlimit:1;stroke-dasharray:none;paint-order:markers stroke fill"
       d="m 114.17639,27.261429 c 3.02656,-1.788588 10.77537,7.070067 14.08643,-4.730536"
       id="path13" />
    <path
       style="fill:none;stroke:#c29d63;stroke-width:1.3873;stroke-linecap:round;stroke-linejoin:miter;stroke-miterlimit:1;stroke-dasharray:none;paint-order:markers stroke fill"
       d="m 61.650833,29.491346 c 2.106371,0.408694 4.830038,-1.934198 6.574548,-2.547265"
       id="path12" />
    <path
       style="fill:none;stroke:#c29d63;stroke-width:1.3873;stroke-linecap:round;stroke-linejoin:miter;stroke-miterlimit:1;stroke-dasharray:none;paint-order:markers stroke fill"
       d="m 103.60169,23.128997 -1.3873,1.328904"
       id="path11" />
    <path
       style="fill:none;stroke:#c29d63;stroke-width:1.3873;stroke-linecap:round;stroke-linejoin:miter;stroke-miterlimit:1;stroke-dasharray:none;paint-order:markers stroke fill"
       d="m 103.40867,23.22305 c -1.67105,1.497727 -4.219621,5.368849 -5.356198,7.536128"
       id="path10" />
    <path
       style="fill:none;stroke:#c29d63;stroke-width:1.3873;stroke-linecap:round;stroke-linejoin:miter;stroke-miterlimit:1;stroke-dasharray:none;paint-order:markers stroke fill"
       d="m 78.273237,25.183635 c -0.935901,3.064916 0.841786,6.458929 4.518861,5.180849 2.538481,-0.882327 8.556439,-9.672433 8.408269,-8.931034 -4.93243,5.284031 -1.096125,6.275454 -1.124911,8.632372 3.387873,-2.453401 6.788359,-6.298999 8.282101,-9.71114 0.464405,-1.060836 2.105103,-2.945433 3.481103,-2.411737 1.81361,0.703423 0.68712,3.723338 1.76303,5.186341 1.98371,-1.921798 4.35504,-3.995862 6.93653,-5.094805 0.81977,-0.348985 2.62617,-0.775114 2.50165,0.614967 -0.33358,3.723981 -5.76952,5.808479 -5.52193,10.027459 0.17402,2.96541 5.14718,-0.375853 6.70829,-1.414065"
       id="path9" />
    <path
       style="fill:none;stroke:#c29d63;stroke-width:1.3873;stroke-linecap:round;stroke-linejoin:miter;stroke-miterlimit:1;stroke-dasharray:none;paint-order:markers stroke fill"
       d="m 44.267601,26.480764 c 0.09353,-2.702966 1.94185,-5.490062 4.161919,-7.111559 1.168597,-0.853515 4.71408,-2.862326 5.408979,-1.066579 1.14947,2.970457 -1.119438,5.873012 -5.382232,6.885151 -1.118849,0.265655 -2.435173,0.42272 -3.649708,1.112734 -1.525586,0.866727 0.207156,4.234107 1.917177,4.587418 3.332306,0.688505 4.640733,-1.488132 6.588103,-3.022537"
       id="path8" />
    <path
       style="fill:none;stroke:#c29d63;stroke-width:1.3873;stroke-linecap:round;stroke-linejoin:miter;stroke-miterlimit:1;stroke-dasharray:none;paint-order:markers stroke fill"
       d="m 73.080958,18.620544 c -1.833735,2.110008 -4.077868,5.259014 -4.487873,7.977016 -0.365816,2.425042 1.338395,4.960457 4.141038,3.839177 5.761039,-2.304864 6.112869,-9.007979 10.751632,-12.758726 1.248773,-1.009715 4.705446,-2.159702 5.106052,0.256911 0.189404,1.142581 -0.542006,2.411147 -0.944133,3.460239"
       id="path7" />
    <path
       style="fill:none;stroke:#c29d63;stroke-width:1.3873;stroke-linecap:round;stroke-linejoin:miter;stroke-miterlimit:1;stroke-dasharray:none;paint-order:markers stroke fill"
       d="m 122.0043,17.874027 c -2.95604,2.088617 -4.3097,3.910591 -6.48847,7.336218 -0.6505,1.022768 -2.21479,2.542507 -2.01514,3.813498 0.67311,4.284994 7.09976,1.318007 8.40734,-0.231219 2.38521,-2.826009 -1.09356,-6.588325 -2.00549,-8.784678"
       id="path6" />
    <path
       style="fill:none;stroke:#c29d63;stroke-width:1.3873;stroke-linecap:round;stroke-linejoin:miter;stroke-miterlimit:1;stroke-dasharray:none;paint-order:markers stroke fill"
       d="m 61.314418,17.779614 c -3.013364,2.738398 -4.144338,4.91054 -6.036915,7.218445 -3.278465,3.997907 -1.915742,2.687329 -1.591223,4.108922 0.879042,3.850765 7.045438,1.407096 8.569187,-0.224547 2.459271,-2.633387 -4.267543,-4.1712 -2.473395,-9.281145"
       id="path5" />
    <path
       style="fill:none;stroke:#c29d63;stroke-width:1.3873;stroke-linecap:round;stroke-linejoin:miter;stroke-miterlimit:1;stroke-dasharray:none;paint-order:markers stroke fill"
       d="m 53.410802,27.781289 c 3.36633,-1.720964 6.258632,0.603996 7.878048,1.590587"
       id="path4" />
    <path
       style="fill:none;stroke:#c29d63;stroke-width:1.3873;stroke-linecap:round;stroke-linejoin:miter;stroke-miterlimit:1;stroke-dasharray:none;paint-order:markers stroke fill"
       d="m 76.549219,12.377662 1.387302,-0.693657"
       id="path3" />
    <path
       style="fill:none;stroke:#c29d63;stroke-width:1.3873;stroke-linecap:round;stroke-linejoin:miter;stroke-miterlimit:1;stroke-dasharray:none;paint-order:markers stroke fill"
       d="M 25.495536,3.8207669 C 20.462284,8.0362731 14.874685,18.144707 16.836071,25.917933 c 6.422436,-0.494252 7.906152,0.416513 10.737589,1.224423"
       id="path2" />
    <path
       style="fill:none;stroke:#c29d63;stroke-width:1.3873;stroke-linecap:round;stroke-linejoin:miter;stroke-miterlimit:1;stroke-dasharray:none;paint-order:markers stroke fill"
       d="M 7.5307286,22.782463 C 1.1260163,18.621881 5.8312788,11.28935 10.998994,8.647678 20.661415,4.0689287 30.004355,3.6453318 38.745122,8.3217243 c 6.930839,3.7080647 4.753547,9.7007227 0.99873,14.1139167 -5.730821,6.735676 -14.847909,10.54334 -23.54246,11.398716 -1.955563,0.192379 -8.1650617,0.682699 -7.5033349,-2.728056 0.6089575,-3.138755 5.7106509,-4.646637 8.2110229,-5.150446 0.707689,3.381242 0.656235,2.779311 1.262342,4.803624"
       id="path1" />
  </g>
</svg>
